<svg width="24" height="24" viewBox="0 0 24 24" fill="none" xmlns="http://www.w3.org/2000/svg">
<path d="M22.5673 11.4174L20.25 12.576L17.25 6.83081L19.5909 5.66037C19.7667 5.57244 19.9701 5.55709 20.1572 5.61762C20.3443 5.67816 20.5001 5.80974 20.5911 5.98404L22.8967 10.3994C22.9428 10.4877 22.9708 10.5843 22.9792 10.6835C22.9876 10.7828 22.9761 10.8827 22.9454 10.9774C22.9148 11.0722 22.8655 11.1599 22.8006 11.2354C22.7357 11.311 22.6564 11.3728 22.5673 11.4174V11.4174Z" stroke="#172765" stroke-width="1.5" stroke-linecap="round" stroke-linejoin="round"/>
<path d="M3.75006 12.4755L1.43278 11.3168C1.34369 11.2723 1.26437 11.2104 1.19944 11.1349C1.13452 11.0594 1.08528 10.9717 1.05462 10.8769C1.02395 10.7822 1.01247 10.6822 1.02084 10.583C1.02921 10.4837 1.05727 10.3871 1.10337 10.2989L3.40896 5.88351C3.49997 5.70921 3.65579 5.57763 3.84287 5.51709C4.02995 5.45655 4.23332 5.4719 4.40919 5.55984L6.75006 6.73027L3.75006 12.4755Z" stroke="#172765" stroke-width="1.5" stroke-linecap="round" stroke-linejoin="round"/>
<path d="M20.25 12.576L18.75 14.3308L15.3003 17.7805C15.2087 17.8721 15.095 17.9384 14.9701 17.973C14.8453 18.0076 14.7137 18.0092 14.588 17.9778L9.15458 16.6195C9.05266 16.594 8.95724 16.5474 8.87448 16.4827L3.75 12.4755" stroke="#172765" stroke-width="1.5" stroke-linecap="round" stroke-linejoin="round"/>
<path d="M18.75 14.3308L14.625 11.3308L13.425 12.2308C12.9058 12.6203 12.2742 12.8308 11.625 12.8308C10.9759 12.8308 10.3443 12.6203 9.82504 12.2308L9.31685 11.8497C9.23088 11.7852 9.15978 11.703 9.10834 11.6087C9.05691 11.5143 9.02635 11.41 9.01873 11.3029C9.01112 11.1957 9.02662 11.0881 9.06419 10.9874C9.10177 10.8868 9.16053 10.7953 9.23652 10.7194L12.9054 7.05051C12.975 6.98087 13.0577 6.92562 13.1487 6.88793C13.2397 6.85024 13.3372 6.83084 13.4357 6.83084H17.25" stroke="#172765" stroke-width="1.5" stroke-linecap="round" stroke-linejoin="round"/>
<path d="M6.80383 6.73031L11.6151 5.32767C11.787 5.27756 11.9711 5.29059 12.1342 5.36439L15.375 6.83079" stroke="#172765" stroke-width="1.5" stroke-linecap="round" stroke-linejoin="round"/>
<path d="M10.5 19.9558L7.67443 19.2494C7.55977 19.2207 7.4535 19.1654 7.3643 19.0878L5.25 17.25" stroke="#172765" stroke-width="1.5" stroke-linecap="round" stroke-linejoin="round"/>
</svg>
