<svg width="24" height="24" viewBox="0 0 24 24" fill="none" xmlns="http://www.w3.org/2000/svg">
<path d="M17.343 3.47507L13.4091 7.40899L13.9394 10.0606L16.5911 10.591L20.525 6.65705L20.5254 6.65688C21.0123 7.80629 21.1288 9.07891 20.8585 10.2976C20.5883 11.5163 19.9448 12.6204 19.0177 13.4563C18.0906 14.2921 16.9259 14.8181 15.6859 14.9611C14.4458 15.104 13.192 14.8568 12.099 14.2538L12.0991 14.2536L6.84106 20.341C6.41902 20.7625 5.84685 20.9992 5.25034 20.9991C4.65382 20.9989 4.08179 20.7619 3.65999 20.3401C3.23819 19.9183 3.00115 19.3462 3.00098 18.7497C3.00081 18.1532 3.23752 17.581 3.65908 17.159L9.7464 11.901L9.74627 11.901C9.14326 10.8081 8.89603 9.55427 9.03897 8.3142C9.18191 7.07412 9.70793 5.90946 10.5438 4.98234C11.3796 4.05521 12.4838 3.41175 13.7025 3.14153C14.9211 2.87131 16.1938 2.98776 17.3432 3.47468L17.343 3.47507Z" stroke="#172765" stroke-width="1.5" stroke-linecap="round" stroke-linejoin="round"/>
</svg>
